<?xml version="1.0" encoding="utf-8"?>
<!-- Generator: Adobe Illustrator 18.1.0, SVG Export Plug-In . SVG Version: 6.00 Build 0)  -->
<svg version="1.1" id="Layer_1" xmlns="http://www.w3.org/2000/svg" xmlns:xlink="http://www.w3.org/1999/xlink" x="0px" y="0px"
	 viewBox="0 0 115.6 67.7" enable-background="new 0 0 115.6 67.7" xml:space="preserve">
<g>
	<g>
		<rect x="94.2" y="35.2" fill="none" width="7.1" height="7.1"/>
		<polygon points="43.2,67.7 44.8,67.7 43.2,65.2 		"/>
		<path d="M43.9,6.6c1.7,2,3.1,4.3,4,6.8c0,0.1,0.1,0.2,0.1,0.3V4.4h39.4V0H47.6h-4.4H29.8c2.9,0,5.5,0.6,7.9,1.8
			C40.1,3,42.2,4.6,43.9,6.6z"/>
		<path d="M115.6,35.2V31h-10.1V20.9h-4.2V31h-7.1V20.9H90V31h-7.5h-2.6H48.1v-2.2c-0.7,2.1-1.7,4-3,5.7c-0.6,0.7-1.2,1.4-1.8,2.1
			v20l7.2,11.2h37.9v-4.4H48.1V35.2h31.8h2.6H90v7.1H79.9v4.2H90v10.1h4.2V46.5h7.1v10.1h4.2V46.5h10.1v-4.2h-10.1v-7.1H115.6z
			 M101.3,42.3h-7.1v-7.1h7.1V42.3z"/>
		<polygon points="43.2,65.2 44.8,67.7 50.4,67.7 43.2,56.5 		"/>
	</g>
	<g>
		<path fill="#45BB91" d="M0,67.7V0h28.2c2.9,0,5.5,0.6,7.9,1.8c2.4,1.2,4.5,2.8,6.2,4.8c1.7,2,3.1,4.3,4,6.8c1,2.5,1.5,5,1.5,7.6
			c0,2.5-0.4,4.9-1.1,7.2c-0.8,2.3-1.8,4.4-3.2,6.2c-1.4,1.8-3.1,3.4-5.1,4.6c-2,1.2-4.1,2-6.5,2.4l16.9,26.3h-5.6L26.8,42.1H4.9
			v25.5H0z M4.9,37.6h23.7c2.2,0,4.1-0.5,5.9-1.4c1.8-1,3.3-2.2,4.6-3.8c1.3-1.6,2.2-3.3,2.9-5.3c0.7-2,1-4,1-6.1
			c0-2.2-0.4-4.2-1.2-6.2c-0.8-2-1.9-3.8-3.2-5.3c-1.4-1.5-3-2.7-4.8-3.7C32,4.8,30,4.4,27.9,4.4H4.9V37.6z"/>
	</g>
</g>
</svg>
